ffmpeg started on 2025-06-07 at 16:04:45
Report written to "D:\Convert\FFMetrics\reports\ssim_report-6.txt"
Log level: 32
Command line:
ffmpeg -hide_banner -nostdin -i "G:\\\xc0\xed\xe8\xec\xe5\\\xce\xed\xe3\xee\xe8\xed\xe3\xe8\\!_36_\xce\xf1\xe5\xed\xfc_2024\\DreamCast\\\xd6\xe5\xeb\xe8\xf2\xe5\xeb\xfc, \xea\xee\xf2\xee\xf0\xee\xe3\xee \xe8\xf1\xea\xeb\xfe\xf7\xe8\xeb\xe8 \xe8\xe7 \xe3\xf0\xf3\xef\xef\xfb, \xee\xea\xe0\xe7\xe0\xeb\xf1\xff \xf1\xe8\xeb\xfc\xed\xe5\xe9\xf8\xe8\xec!\\[DC] sonochiyushi - 05_Telegram_HEVC.mkv" -i "G:\\\xc0\xed\xe8\xec\xe5\\\xce\xed\xe3\xee\xe8\xed\xe3\xe8\\!_36_\xce\xf1\xe5\xed\xfc_2024\\DreamCast\\\xd6\xe5\xeb\xe8\xf2\xe5\xeb\xfc, \xea\xee\xf2\xee\xf0\xee\xe3\xee \xe8\xf1\xea\xeb\xfe\xf7\xe8\xeb\xe8 \xe8\xe7 \xe3\xf0\xf3\xef\xef\xfb, \xee\xea\xe0\xe7\xe0\xeb\xf1\xff \xf1\xe8\xeb\xfc\xed\xe5\xe9\xf8\xe8\xec!\\[DC] sonochiyushi - 05_Telegram.mp4" -lavfi "[0:v]settb=AVTB,setpts=PTS-STARTPTS,format=pix_fmts=yuv420p10,fps=24000/1001,scale=1920:1080:flags=bicubic[main];[1:v]settb=AVTB,setpts=PTS-STARTPTS,format=pix_fmts=yuv420p,fps=24000/1001,scale=1920:1080:flags=bicubic[ref];[main][ref]ssim=eof_action=endall:stats_file='D\\:/Convert/FFMetrics/logs/ssim_logfile-6.txt'" -f null -
Input #0, matroska,webm, from 'G:\Аниме\Онгоинги\!_36_Осень_2024\DreamCast\Целитель, которого исключили из группы, оказался сильнейшим!\[DC] sonochiyushi - 05_Telegram_HEVC.mkv':
  Metadata:
    COMPATIBLE_BRANDS: isomiso2avc1mp41
    MAJOR_BRAND     : isom
    MINOR_VERSION   : 512
    ENCODER         : Lavf61.7.100
  Duration: 00:23:30.69, start: -0.021000, bitrate: 879 kb/s
  Stream #0:0: Video: hevc (Main 10), yuv420p10le(tv, bt709, progressive), 1920x1080 [SAR 1:1 DAR 16:9], 23.98 fps, 23.98 tbr, 1k tbn (default)
      Metadata:
        HANDLER_NAME    : VideoHandler
        VENDOR_ID       : [0][0][0][0]
        ENCODER         : Lavc61.19.100 libx265
        BPS             : 682080
        DURATION        : 00:23:30.575708333
        NUMBER_OF_FRAMES: 33820
        NUMBER_OF_BYTES : 120265708
        _STATISTICS_WRITING_APP: mkvpropedit v66.0.0 ('Josie') 64-bit
        _STATISTICS_WRITING_DATE_UTC: 2025-06-05 08:02:32
        _STATISTICS_TAGS: BPS DURATION NUMBER_OF_FRAMES NUMBER_OF_BYTES
  Stream #0:1: Audio: aac (LC), 48000 Hz, stereo, fltp (default)
      Metadata:
        HANDLER_NAME    : SoundHandler
        VENDOR_ID       : [0][0][0][0]
        ENCODER         : Lavc61.19.100 aac
        BPS             : 193737
        DURATION        : 00:23:30.688000000
        NUMBER_OF_FRAMES: 66127
        NUMBER_OF_BYTES : 34162884
        _STATISTICS_WRITING_APP: mkvpropedit v66.0.0 ('Josie') 64-bit
        _STATISTICS_WRITING_DATE_UTC: 2025-06-05 08:02:32
        _STATISTICS_TAGS: BPS DURATION NUMBER_OF_FRAMES NUMBER_OF_BYTES
Input #1, mov,mp4,m4a,3gp,3g2,mj2, from 'G:\Аниме\Онгоинги\!_36_Осень_2024\DreamCast\Целитель, которого исключили из группы, оказался сильнейшим!\[DC] sonochiyushi - 05_Telegram.mp4':
  Metadata:
    major_brand     : isom
    minor_version   : 512
    compatible_brands: isomiso2avc1mp41
    encoder         : Lavf61.1.100
  Duration: 00:23:30.64, start: 0.000000, bitrate: 3447 kb/s
  Stream #1:0[0x1](und): Video: h264 (High) (avc1 / 0x31637661), yuv420p(tv, bt709, progressive), 1920x1080 [SAR 1:1 DAR 16:9], 3299 kb/s, 23.98 fps, 23.98 tbr, 24k tbn (default)
      Metadata:
        handler_name    : VideoHandler
        vendor_id       : [0][0][0][0]
        encoder         : Lavc61.3.100 h264_qsv
  Stream #1:1[0x2](und): Audio: aac (HE-AACv2) (mp4a / 0x6134706D), 48000 Hz, stereo, fltp, 144 kb/s (default)
      Metadata:
        handler_name    : SoundHandler
        vendor_id       : [0][0][0][0]
Stream mapping:
  Stream #0:0 (hevc) -> settb:default
  Stream #1:0 (h264) -> settb:default
  ssim:default -> Stream #0:0 (wrapped_avframe)
  Stream #0:1 -> #0:1 (aac (native) -> pcm_s16le (native))
Output #0, null, to 'pipe:':
  Metadata:
    COMPATIBLE_BRANDS: isomiso2avc1mp41
    MAJOR_BRAND     : isom
    MINOR_VERSION   : 512
    encoder         : Lavf61.7.100
  Stream #0:0: Video: wrapped_avframe, yuv420p10le(tv, bt709, progressive), 1920x1080 [SAR 1:1 DAR 16:9], q=2-31, 200 kb/s, 23.98 fps, 23.98 tbn
      Metadata:
        encoder         : Lavc61.19.100 wrapped_avframe
  Stream #0:1: Audio: pcm_s16le, 48000 Hz, stereo, s16, 1536 kb/s (default)
      Metadata:
        HANDLER_NAME    : SoundHandler
        VENDOR_ID       : [0][0][0][0]
        _STATISTICS_TAGS: BPS DURATION NUMBER_OF_FRAMES NUMBER_OF_BYTES
        BPS             : 193737
        DURATION        : 00:23:30.688000000
        NUMBER_OF_FRAMES: 66127
        NUMBER_OF_BYTES : 34162884
        _STATISTICS_WRITING_APP: mkvpropedit v66.0.0 ('Josie') 64-bit
        _STATISTICS_WRITING_DATE_UTC: 2025-06-05 08:02:32
        encoder         : Lavc61.19.100 pcm_s16le
frame=  164 fps=0.0 q=-0.0 size=N/A time=00:00:06.84 bitrate=N/A speed=13.3x    frame=  396 fps=385 q=-0.0 size=N/A time=00:00:16.51 bitrate=N/A speed=16.1x    frame=  639 fps=415 q=-0.0 size=N/A time=00:00:26.65 bitrate=N/A speed=17.3x    frame=  914 fps=443 q=-0.0 size=N/A time=00:00:38.12 bitrate=N/A speed=18.5x    frame= 1180 fps=458 q=-0.0 size=N/A time=00:00:49.21 bitrate=N/A speed=19.1x    frame= 1391 fps=451 q=-0.0 size=N/A time=00:00:58.01 bitrate=N/A speed=18.8x    frame= 1573 fps=436 q=-0.0 size=N/A time=00:01:05.60 bitrate=N/A speed=18.2x    frame= 1799 fps=437 q=-0.0 size=N/A time=00:01:15.03 bitrate=N/A speed=18.2x    frame= 2004 fps=432 q=-0.0 size=N/A time=00:01:23.58 bitrate=N/A speed=  18x    frame= 2215 fps=430 q=-0.0 size=N/A time=00:01:32.38 bitrate=N/A speed=17.9x    frame= 2395 fps=423 q=-0.0 size=N/A time=00:01:39.89 bitrate=N/A speed=17.6x    frame= 2594 fps=420 q=-0.0 size=N/A time=00:01:48.19 bitrate=N/A speed=17.5x    frame= 2781 fps=416 q=-0.0 size=N/A time=00:01:55.99 bitrate=N/A speed=17.3x    frame= 3002 fps=416 q=-0.0 size=N/A time=00:02:05.20 bitrate=N/A speed=17.4x    frame= 3168 fps=410 q=-0.0 size=N/A time=00:02:12.13 bitrate=N/A speed=17.1x    frame= 3367 fps=408 q=-0.0 size=N/A time=00:02:20.43 bitrate=N/A speed=  17x    frame= 3614 fps=413 q=-0.0 size=N/A time=00:02:30.73 bitrate=N/A speed=17.2x    frame= 3824 fps=412 q=-0.0 size=N/A time=00:02:39.49 bitrate=N/A speed=17.2x    frame= 4078 fps=416 q=-0.0 size=N/A time=00:02:50.08 bitrate=N/A speed=17.4x    frame= 4356 fps=422 q=-0.0 size=N/A time=00:03:01.68 bitrate=N/A speed=17.6x    frame= 4595 fps=425 q=-0.0 size=N/A time=00:03:11.64 bitrate=N/A speed=17.7x    frame= 4864 fps=429 q=-0.0 size=N/A time=00:03:22.86 bitrate=N/A speed=17.9x    frame= 5150 fps=434 q=-0.0 size=N/A time=00:03:34.79 bitrate=N/A speed=18.1x    frame= 5404 fps=437 q=-0.0 size=N/A time=00:03:45.39 bitrate=N/A speed=18.2x    frame= 5629 fps=437 q=-0.0 size=N/A time=00:03:54.77 bitrate=N/A speed=18.2x    frame= 5871 fps=438 q=-0.0 size=N/A time=00:04:04.86 bitrate=N/A speed=18.3x    frame= 6130 fps=440 q=-0.0 size=N/A time=00:04:15.67 bitrate=N/A speed=18.4x    frame= 6405 fps=444 q=-0.0 size=N/A time=00:04:27.14 bitrate=N/A speed=18.5x    frame= 6670 fps=446 q=-0.0 size=N/A time=00:04:38.19 bitrate=N/A speed=18.6x    frame= 6901 fps=446 q=-0.0 size=N/A time=00:04:47.82 bitrate=N/A speed=18.6x    frame= 7166 fps=448 q=-0.0 size=N/A time=00:04:58.88 bitrate=N/A speed=18.7x    frame= 7435 fps=451 q=-0.0 size=N/A time=00:05:10.10 bitrate=N/A speed=18.8x    frame= 7699 fps=452 q=-0.0 size=N/A time=00:05:21.11 bitrate=N/A speed=18.9x    frame= 7969 fps=455 q=-0.0 size=N/A time=00:05:32.37 bitrate=N/A speed=  19x    frame= 8244 fps=457 q=-0.0 size=N/A time=00:05:43.84 bitrate=N/A speed=19.1x    frame= 8497 fps=458 q=-0.0 size=N/A time=00:05:54.39 bitrate=N/A speed=19.1x    frame= 8777 fps=460 q=-0.0 size=N/A time=00:06:06.07 bitrate=N/A speed=19.2x    frame= 9058 fps=462 q=-0.0 size=N/A time=00:06:17.79 bitrate=N/A speed=19.3x    frame= 9331 fps=464 q=-0.0 size=N/A time=00:06:29.18 bitrate=N/A speed=19.4x    frame= 9606 fps=466 q=-0.0 size=N/A time=00:06:40.65 bitrate=N/A speed=19.4x    frame= 9879 fps=467 q=-0.0 size=N/A time=00:06:52.03 bitrate=N/A speed=19.5x    frame=10156 fps=469 q=-0.0 size=N/A time=00:07:03.58 bitrate=N/A speed=19.6x    frame=10405 fps=469 q=-0.0 size=N/A time=00:07:13.97 bitrate=N/A speed=19.6x    frame=10681 fps=471 q=-0.0 size=N/A time=00:07:25.48 bitrate=N/A speed=19.6x    frame=10947 fps=472 q=-0.0 size=N/A time=00:07:36.58 bitrate=N/A speed=19.7x    frame=11216 fps=473 q=-0.0 size=N/A time=00:07:47.80 bitrate=N/A speed=19.7x    frame=11496 fps=474 q=-0.0 size=N/A time=00:07:59.47 bitrate=N/A speed=19.8x    frame=11744 fps=474 q=-0.0 size=N/A time=00:08:09.82 bitrate=N/A speed=19.8x    frame=12019 fps=476 q=-0.0 size=N/A time=00:08:21.29 bitrate=N/A speed=19.8x    frame=12292 fps=477 q=-0.0 size=N/A time=00:08:32.67 bitrate=N/A speed=19.9x    frame=12569 fps=478 q=-0.0 size=N/A time=00:08:44.23 bitrate=N/A speed=19.9x    frame=12845 fps=479 q=-0.0 size=N/A time=00:08:55.74 bitrate=N/A speed=  20x    frame=13119 fps=480 q=-0.0 size=N/A time=00:09:07.17 bitrate=N/A speed=  20x    frame=13387 fps=481 q=-0.0 size=N/A time=00:09:18.34 bitrate=N/A speed=20.1x    frame=13661 fps=482 q=-0.0 size=N/A time=00:09:29.77 bitrate=N/A speed=20.1x    frame=13905 fps=482 q=-0.0 size=N/A time=00:09:39.95 bitrate=N/A speed=20.1x    frame=14198 fps=483 q=-0.0 size=N/A time=00:09:52.17 bitrate=N/A speed=20.2x    frame=14481 fps=484 q=-0.0 size=N/A time=00:10:03.97 bitrate=N/A speed=20.2x    frame=14748 fps=485 q=-0.0 size=N/A time=00:10:15.11 bitrate=N/A speed=20.2x    frame=15004 fps=485 q=-0.0 size=N/A time=00:10:25.79 bitrate=N/A speed=20.2x    frame=15246 fps=485 q=-0.0 size=N/A time=00:10:35.88 bitrate=N/A speed=20.2x    frame=15494 fps=485 q=-0.0 size=N/A time=00:10:46.22 bitrate=N/A speed=20.2x    frame=15767 fps=485 q=-0.0 size=N/A time=00:10:57.61 bitrate=N/A speed=20.2x    frame=16039 fps=486 q=-0.0 size=N/A time=00:11:08.95 bitrate=N/A speed=20.3x    frame=16295 fps=486 q=-0.0 size=N/A time=00:11:19.63 bitrate=N/A speed=20.3x    frame=16562 fps=487 q=-0.0 size=N/A time=00:11:30.77 bitrate=N/A speed=20.3x    frame=16811 fps=487 q=-0.0 size=N/A time=00:11:41.15 bitrate=N/A speed=20.3x    frame=17089 fps=487 q=-0.0 size=N/A time=00:11:52.75 bitrate=N/A speed=20.3x    frame=17381 fps=489 q=-0.0 size=N/A time=00:12:04.93 bitrate=N/A speed=20.4x    frame=17634 fps=489 q=-0.0 size=N/A time=00:12:15.48 bitrate=N/A speed=20.4x    frame=17908 fps=489 q=-0.0 size=N/A time=00:12:26.91 bitrate=N/A speed=20.4x    frame=18172 fps=490 q=-0.0 size=N/A time=00:12:37.92 bitrate=N/A speed=20.4x    frame=18420 fps=489 q=-0.0 size=N/A time=00:12:48.26 bitrate=N/A speed=20.4x    frame=18701 fps=490 q=-0.0 size=N/A time=00:12:59.98 bitrate=N/A speed=20.4x    frame=18954 fps=490 q=-0.0 size=N/A time=00:13:10.53 bitrate=N/A speed=20.4x    frame=19144 fps=489 q=-0.0 size=N/A time=00:13:18.46 bitrate=N/A speed=20.4x    frame=19334 fps=487 q=-0.0 size=N/A time=00:13:26.38 bitrate=N/A speed=20.3x    frame=19561 fps=486 q=-0.0 size=N/A time=00:13:35.85 bitrate=N/A speed=20.3x    frame=19779 fps=486 q=-0.0 size=N/A time=00:13:44.94 bitrate=N/A speed=20.3x    frame=20001 fps=485 q=-0.0 size=N/A time=00:13:54.20 bitrate=N/A speed=20.2x    frame=20222 fps=484 q=-0.0 size=N/A time=00:14:03.42 bitrate=N/A speed=20.2x    frame=20440 fps=483 q=-0.0 size=N/A time=00:14:12.51 bitrate=N/A speed=20.2x    frame=20718 fps=484 q=-0.0 size=N/A time=00:14:24.11 bitrate=N/A speed=20.2x    frame=21003 fps=485 q=-0.0 size=N/A time=00:14:36.00 bitrate=N/A speed=20.2x    frame=21261 fps=485 q=-0.0 size=N/A time=00:14:46.76 bitrate=N/A speed=20.2x    frame=21517 fps=485 q=-0.0 size=N/A time=00:14:57.43 bitrate=N/A speed=20.2x    frame=21774 fps=486 q=-0.0 size=N/A time=00:15:08.15 bitrate=N/A speed=20.2x    frame=22026 fps=485 q=-0.0 size=N/A time=00:15:18.66 bitrate=N/A speed=20.2x    frame=22277 fps=485 q=-0.0 size=N/A time=00:15:29.13 bitrate=N/A speed=20.2x    frame=22547 fps=486 q=-0.0 size=N/A time=00:15:40.39 bitrate=N/A speed=20.3x    frame=22840 fps=487 q=-0.0 size=N/A time=00:15:52.61 bitrate=N/A speed=20.3x    frame=23112 fps=487 q=-0.0 size=N/A time=00:16:03.96 bitrate=N/A speed=20.3x    frame=23360 fps=487 q=-0.0 size=N/A time=00:16:14.30 bitrate=N/A speed=20.3x    frame=23586 fps=487 q=-0.0 size=N/A time=00:16:23.73 bitrate=N/A speed=20.3x    frame=23826 fps=486 q=-0.0 size=N/A time=00:16:33.74 bitrate=N/A speed=20.3x    frame=24089 fps=487 q=-0.0 size=N/A time=00:16:44.71 bitrate=N/A speed=20.3x    frame=24384 fps=488 q=-0.0 size=N/A time=00:16:57.01 bitrate=N/A speed=20.3x    frame=24655 fps=488 q=-0.0 size=N/A time=00:17:08.31 bitrate=N/A speed=20.4x    frame=24943 fps=489 q=-0.0 size=N/A time=00:17:20.33 bitrate=N/A speed=20.4x    frame=25207 fps=489 q=-0.0 size=N/A time=00:17:31.34 bitrate=N/A speed=20.4x    frame=25473 fps=489 q=-0.0 size=N/A time=00:17:42.43 bitrate=N/A speed=20.4x    frame=25736 fps=489 q=-0.0 size=N/A time=00:17:53.40 bitrate=N/A speed=20.4x    frame=26021 fps=490 q=-0.0 size=N/A time=00:18:05.29 bitrate=N/A speed=20.4x    frame=26295 fps=490 q=-0.0 size=N/A time=00:18:16.72 bitrate=N/A speed=20.5x    frame=26575 fps=491 q=-0.0 size=N/A time=00:18:28.39 bitrate=N/A speed=20.5x    frame=26842 fps=491 q=-0.0 size=N/A time=00:18:39.53 bitrate=N/A speed=20.5x    frame=27109 fps=491 q=-0.0 size=N/A time=00:18:50.67 bitrate=N/A speed=20.5x    frame=27374 fps=492 q=-0.0 size=N/A time=00:19:01.72 bitrate=N/A speed=20.5x    frame=27643 fps=492 q=-0.0 size=N/A time=00:19:12.94 bitrate=N/A speed=20.5x    frame=27916 fps=492 q=-0.0 size=N/A time=00:19:24.32 bitrate=N/A speed=20.5x    frame=28171 fps=492 q=-0.0 size=N/A time=00:19:34.96 bitrate=N/A speed=20.5x    frame=28412 fps=492 q=-0.0 size=N/A time=00:19:45.01 bitrate=N/A speed=20.5x    frame=28653 fps=492 q=-0.0 size=N/A time=00:19:55.06 bitrate=N/A speed=20.5x    frame=28895 fps=492 q=-0.0 size=N/A time=00:20:05.16 bitrate=N/A speed=20.5x    frame=29173 fps=492 q=-0.0 size=N/A time=00:20:16.75 bitrate=N/A speed=20.5x    frame=29446 fps=492 q=-0.0 size=N/A time=00:20:28.14 bitrate=N/A speed=20.5x    frame=29678 fps=492 q=-0.0 size=N/A time=00:20:37.81 bitrate=N/A speed=20.5x    frame=29937 fps=492 q=-0.0 size=N/A time=00:20:48.62 bitrate=N/A speed=20.5x    frame=30173 fps=492 q=-0.0 size=N/A time=00:20:58.46 bitrate=N/A speed=20.5x    frame=30448 fps=492 q=-0.0 size=N/A time=00:21:09.93 bitrate=N/A speed=20.5x    frame=30693 fps=492 q=-0.0 size=N/A time=00:21:20.15 bitrate=N/A speed=20.5x    frame=30929 fps=492 q=-0.0 size=N/A time=00:21:29.99 bitrate=N/A speed=20.5x    frame=31179 fps=492 q=-0.0 size=N/A time=00:21:40.42 bitrate=N/A speed=20.5x    frame=31377 fps=491 q=-0.0 size=N/A time=00:21:48.68 bitrate=N/A speed=20.5x    frame=31607 fps=490 q=-0.0 size=N/A time=00:21:58.27 bitrate=N/A speed=20.5x    frame=31858 fps=490 q=-0.0 size=N/A time=00:22:08.74 bitrate=N/A speed=20.5x    frame=32075 fps=490 q=-0.0 size=N/A time=00:22:17.79 bitrate=N/A speed=20.4x    frame=32350 fps=490 q=-0.0 size=N/A time=00:22:29.26 bitrate=N/A speed=20.4x    frame=32595 fps=490 q=-0.0 size=N/A time=00:22:39.48 bitrate=N/A speed=20.4x    frame=32784 fps=489 q=-0.0 size=N/A time=00:22:47.36 bitrate=N/A speed=20.4x    frame=33027 fps=489 q=-0.0 size=N/A time=00:22:57.50 bitrate=N/A speed=20.4x    frame=33243 fps=488 q=-0.0 size=N/A time=00:23:06.51 bitrate=N/A speed=20.4x    frame=33461 fps=488 q=-0.0 size=N/A time=00:23:15.60 bitrate=N/A speed=20.4x    frame=33720 fps=488 q=-0.0 size=N/A time=00:23:26.40 bitrate=N/A speed=20.4x    [Parsed_ssim_10 @ 0000018b2039cf00] SSIM Y:0.994971 (22.985157) U:0.994790 (22.831514) V:0.994774 (22.818502) All:0.994908 (22.931113)
[out#0/null @ 0000018b20a3ba00] video:14532KiB audio:264508KiB subtitle:0KiB other streams:0KiB global headers:0KiB muxing overhead: unknown
frame=33820 fps=488 q=-0.0 Lsize=N/A time=00:23:30.57 bitrate=N/A speed=20.4x    
